<?xml version="1.0" standalone="no"?>
<!DOCTYPE svg PUBLIC "-//W3C//DTD SVG 20010904//EN"
 "http://www.w3.org/TR/2001/REC-SVG-20010904/DTD/svg10.dtd">
<svg version="1.0" xmlns="http://www.w3.org/2000/svg"
 width="498.000000pt" height="390.000000pt" viewBox="0 0 498.000000 390.000000"
 preserveAspectRatio="xMidYMid meet">

<g transform="translate(0.000000,390.000000) scale(0.100000,-0.100000)"
fill="#000000" stroke="none">
<path d="M136 3887 c3 -8 -5 -19 -18 -25 l-23 -11 23 -7 c12 -3 22 -12 22 -19
0 -7 -10 -16 -22 -19 -23 -6 -23 -7 5 -22 28 -15 29 -34 1 -34 -21 0 -17 -18
6 -25 28 -9 25 -23 -6 -31 l-27 -7 28 -15 c27 -14 28 -15 10 -28 -10 -8 -24
-14 -29 -14 -6 0 0 -6 13 -13 35 -17 36 -33 4 -42 l-28 -7 28 -10 c15 -6 26
-15 24 -21 -5 -18 -77 -39 -114 -35 -32 4 -33 3 -33 -34 0 -37 1 -38 38 -40
104 -4 114 -6 107 -18 -3 -5 -18 -10 -33 -11 -26 -1 -26 -1 6 -10 37 -11 42
-34 10 -44 -23 -6 -22 -7 4 -17 33 -12 36 -28 7 -35 l-22 -6 23 -17 c24 -18
20 -40 -7 -40 -11 0 -9 -5 8 -20 23 -19 23 -21 6 -34 -15 -12 -16 -14 -2 -20
20 -7 19 -32 -2 -41 -17 -6 -17 -7 -1 -16 23 -13 23 -39 1 -39 -16 0 -16 -1
-1 -17 23 -22 53 -1 38 27 -7 13 -5 21 5 30 13 10 13 14 -1 27 -11 12 -12 18
-3 29 9 11 9 17 0 28 -9 11 -9 17 3 28 12 11 12 15 -1 30 -13 15 -13 18 5 29
20 12 20 13 -1 29 l-21 17 23 12 22 12 -23 19 c-22 18 -23 19 -3 25 36 12 60
25 45 24 -48 -4 -57 16 -10 23 33 5 65 -10 41 -19 -11 -4 -8 -10 10 -24 22
-18 23 -20 7 -32 -16 -13 -16 -15 -1 -30 12 -12 14 -19 5 -30 -9 -10 -9 -16 0
-25 10 -10 10 -17 1 -31 -9 -14 -9 -21 0 -30 9 -9 8 -16 -1 -31 -9 -14 -9 -20
-1 -20 7 0 9 -11 6 -30 -4 -16 -2 -32 3 -35 7 -4 6 -13 0 -26 -6 -11 -8 -25
-3 -32 12 -20 5 -139 -9 -149 -10 -8 -10 -11 0 -15 17 -7 15 -32 -3 -39 -14
-6 -14 -8 1 -18 17 -13 27 -83 15 -101 -11 -15 -11 -54 0 -60 5 -4 9 -89 9
-197 l0 -191 -51 6 c-29 4 -54 8 -56 10 -11 12 -8 104 4 118 11 13 10 18 -6
33 -12 11 -21 14 -26 7 -3 -6 -16 -11 -28 -11 -21 0 -21 -1 3 -13 22 -11 25
-19 25 -70 1 -52 -1 -58 -22 -63 -49 -13 -143 14 -102 28 9 3 8 10 -1 28 -9
18 -10 25 -1 28 6 2 11 12 11 23 0 20 37 41 54 31 5 -3 6 0 2 6 -4 7 -16 12
-27 12 -27 0 -37 30 -14 42 14 8 15 12 4 19 -11 7 -12 12 -1 29 10 17 10 20
-3 20 -23 0 -29 1 -47 11 -17 9 -18 -5 -18 -240 l0 -249 23 11 c27 12 51 57
38 70 -4 4 -6 19 -3 33 5 29 39 40 79 27 28 -10 28 -11 28 -92 0 -46 -3 -85
-7 -87 -4 -3 -2 -14 5 -25 10 -17 9 -22 -5 -33 -16 -12 -16 -14 0 -30 14 -14
15 -18 3 -25 -10 -6 -10 -13 -3 -28 8 -14 8 -23 0 -31 -8 -8 -8 -15 2 -27 10
-12 10 -18 -1 -32 -11 -13 -11 -17 -1 -20 6 -3 12 -12 12 -20 0 -11 -9 -14
-35 -11 -43 5 -45 -4 -5 -19 49 -19 37 -34 -22 -28 l-53 5 58 -22 c68 -27 73
-45 14 -51 l-42 -3 32 -8 c18 -5 38 -15 45 -23 11 -14 7 -15 -30 -11 -50 4
-51 -11 -2 -27 51 -17 50 -35 -2 -35 l-43 -1 37 -20 c48 -25 50 -42 3 -33 -19
3 -35 2 -35 -3 0 -5 16 -15 35 -22 46 -16 46 -35 1 -27 -49 9 -52 -8 -6 -29
52 -23 51 -37 -2 -30 l-43 6 42 -26 c44 -27 57 -50 26 -42 -66 18 -77 19 -64
3 8 -9 19 -16 25 -16 6 0 22 -9 36 -20 l25 -20 -55 6 c-30 4 -63 11 -72 16
-20 10 -24 38 -7 38 8 0 8 4 1 13 -5 6 -10 56 -10 110 0 60 -4 103 -11 110 -8
8 -11 -194 -11 -766 l0 -777 2490 0 2490 0 0 1950 0 1950 -2348 0 c-2171 0
-2351 -1 -2382 -17 -31 -15 -36 -15 -63 0 -35 20 -58 22 -51 4z m138 -42 c4
-10 -3 -17 -22 -21 -15 -3 -31 -7 -37 -9 -5 -1 -19 2 -29 8 -19 9 -19 10 -1
23 25 19 81 18 89 -1z m-4 -55 c13 -9 13 -11 0 -20 -20 -13 -87 -13 -96 1 -15
25 64 40 96 19z m-6 -53 c16 -12 16 -14 3 -26 -19 -15 -89 -11 -94 6 -3 7 10
16 29 22 45 13 42 13 62 -2z m-3 -57 c29 -16 23 -28 -18 -36 -55 -10 -92 23
-41 38 34 9 38 9 59 -2z m3 -56 c9 -3 16 -12 16 -19 0 -27 -79 -35 -100 -10
-10 12 -8 16 11 24 29 12 52 13 73 5z m0 -60 c23 -9 20 -31 -6 -40 -28 -9 -58
-6 -76 9 -28 23 39 48 82 31z m1321 -691 c-1 -26 -42 -103 -56 -103 -10 0 3
115 15 122 24 16 41 8 41 -19z m-291 -88 c4 -25 3 -34 -2 -25 -13 22 -24 87
-13 75 5 -6 11 -28 15 -50z m281 -2 c-2 -16 -4 -30 -4 -32 -1 -3 -6 0 -12 6
-8 8 -8 17 0 32 16 28 20 26 16 -6z m-271 -58 c3 -8 1 -15 -4 -15 -6 0 -10 7
-10 15 0 8 2 15 4 15 2 0 6 -7 10 -15z m223 -29 c-4 -9 -1 -13 6 -10 7 2 18
-10 26 -28 20 -49 21 -56 3 -63 -9 -3 -13 -3 -10 1 4 3 0 13 -8 21 -8 8 -12
19 -9 24 4 5 -1 6 -9 3 -12 -5 -16 1 -16 23 0 27 7 43 18 43 2 0 2 -7 -1 -14z
m-217 -59 c0 -24 -3 -28 -10 -17 -13 20 -13 63 0 55 6 -3 10 -21 10 -38z m-13
-53 c-8 -8 -38 27 -31 38 3 5 13 0 21 -12 8 -12 13 -23 10 -26z m123 -145 c0
-6 -4 -7 -10 -4 -5 3 -10 11 -10 16 0 6 5 7 10 4 6 -3 10 -11 10 -16z m-1162
-235 c41 -8 46 -27 43 -149 -2 -55 -4 -163 -5 -239 -1 -92 -6 -141 -13 -143
-6 -2 -28 3 -50 12 -36 15 -37 17 -19 30 16 12 16 15 4 20 -11 4 -15 26 -16
93 0 48 -3 149 -6 226 -3 76 -3 142 0 147 6 11 20 11 62 3z m1346 -150 c3 -8
2 -12 -4 -9 -6 3 -10 10 -10 16 0 14 7 11 14 -7z m1137 -26 c32 -13 59 -26 59
-31 0 -9 -168 -3 -177 6 -3 4 6 11 21 16 14 6 26 15 26 21 0 14 5 13 71 -12z
m-1301 -29 c0 -9 9 -28 21 -43 29 -36 19 -58 -23 -51 -36 7 -54 25 -35 37 9 6
9 8 -1 8 -9 0 -11 7 -6 23 4 12 7 29 7 37 0 8 5 18 11 22 12 8 26 -9 26 -33z
m-87 -99 c2 -23 0 -43 -4 -46 -4 -2 -6 -17 -5 -34 3 -37 -24 -49 -60 -25 -19
12 -24 22 -20 43 2 15 5 30 5 35 1 4 6 7 12 7 14 0 43 30 35 37 -3 3 2 12 12
19 22 16 22 15 25 -36z m309 -198 c7 -10 0 -6 -16 8 -33 30 -66 90 -66 122 1
15 12 0 35 -45 19 -38 40 -76 47 -85z m-1378 -58 c20 -19 12 -34 -17 -34 -28
0 -69 28 -62 41 10 15 62 10 79 -7z m4 -66 c4 -21 -27 -24 -59 -8 -31 17 -22
31 18 28 27 -2 39 -8 41 -20z m2 -53 c7 -9 7 -15 -2 -23 -15 -12 -78 10 -78
27 0 22 61 19 80 -4z m-25 -47 c44 -20 29 -42 -18 -26 -41 14 -44 17 -27 28
19 12 14 12 45 -2z m-6 -59 c32 -11 42 -29 17 -29 -27 0 -67 20 -61 30 8 12 5
12 44 -1z m21 -74 c10 -12 7 -13 -21 -5 -42 12 -49 20 -17 20 14 0 31 -7 38
-15z m-14 -50 c30 -16 25 -19 -13 -9 -13 4 -23 10 -23 15 0 12 3 11 36 -6z
m-155 -67 c22 -12 39 -25 39 -28 0 -4 -27 0 -60 8 -37 9 -60 20 -60 28 0 21
37 17 81 -8z m30 -74 c12 -15 10 -16 -21 -9 -48 10 -62 25 -23 25 17 0 37 -7
44 -16z m-36 -38 c47 -20 44 -29 -7 -23 -24 3 -37 3 -30 0 18 -7 4 -23 -20
-23 -16 0 -18 3 -9 14 6 8 11 18 10 22 -5 28 7 30 56 10z m13 -134 c-32 -4
-34 -9 -11 -34 18 -21 10 -23 -45 -12 -23 5 -29 10 -24 26 3 13 11 18 23 15
10 -3 23 1 29 8 6 8 20 10 33 7 20 -6 20 -7 -5 -10z m-22 -76 c22 -17 16 -26
-20 -30 -28 -3 -52 16 -41 34 9 14 38 13 61 -4z m-11 -57 c10 -14 1 -21 -19
-13 -9 3 -13 10 -10 15 7 12 21 11 29 -2z m5 -64 c11 -13 8 -15 -14 -15 -25 0
-33 10 -19 23 10 11 19 8 33 -8z m16 -56 c38 -23 44 -39 14 -39 -25 0 -26 -16
-2 -29 14 -8 15 -13 5 -30 -7 -11 -11 -26 -8 -33 2 -7 -9 -69 -24 -138 -16
-69 -30 -114 -31 -100 -2 14 -4 48 -5 76 -1 28 -5 56 -9 62 -4 6 4 16 16 23
l22 12 -22 8 c-29 11 -28 27 3 35 30 7 33 24 5 31 -12 3 -19 11 -17 17 5 12
11 12 41 0 14 -5 17 -3 14 7 -3 8 -11 14 -19 14 -26 1 -41 17 -35 38 3 12 0
27 -5 34 -12 13 -4 33 13 33 6 0 26 -9 44 -21z"/>
<path d="M155 3011 c-3 -6 -23 -12 -43 -12 -20 -1 -28 -3 -17 -6 11 -2 30 -6
43 -9 34 -7 26 -22 -18 -34 -23 -6 -38 -15 -34 -21 3 -6 13 -8 21 -4 21 7 55
-4 48 -16 -4 -5 -16 -9 -28 -9 -12 0 -28 -4 -36 -9 -12 -8 -12 -12 2 -26 19
-19 14 -35 -11 -35 -14 0 -14 -2 2 -13 17 -13 17 -14 1 -30 -12 -13 -14 -21
-7 -30 7 -8 7 -18 2 -27 -12 -19 -3 -30 25 -30 44 0 55 -10 55 -50 0 -22 -5
-40 -12 -43 -10 -3 -10 -7 0 -20 8 -9 11 -25 8 -35 -4 -12 -1 -22 8 -25 22 -9
23 -2 19 75 -4 78 4 92 44 77 18 -6 23 -5 23 6 0 8 -6 15 -13 15 -8 0 -24 11
-37 25 -19 20 -21 27 -10 40 8 10 9 15 2 15 -23 0 2 30 32 39 17 5 24 10 16
10 -8 1 -21 5 -29 10 -12 8 -13 12 -1 26 7 8 14 29 15 46 2 24 -2 32 -22 40
-18 7 -23 15 -21 35 3 27 -15 44 -27 25z m-18 -227 c-3 -3 -12 -4 -19 -1 -8 3
-5 6 6 6 11 1 17 -2 13 -5z m1 -47 c2 -10 -3 -17 -12 -17 -18 0 -29 16 -21 31
9 14 29 6 33 -14z"/>
<path d="M70 2606 c0 -10 28 -13 41 -5 10 6 7 9 -13 9 -16 0 -28 -2 -28 -4z"/>
<path d="M160 2489 c-13 -8 -13 -10 0 -19 21 -14 30 -12 30 4 0 20 -13 27 -30
15z"/>
<path d="M0 1826 c0 -130 3 -235 8 -232 4 2 7 36 6 75 -1 39 2 71 5 71 3 0 15
7 25 15 19 14 19 15 -7 39 -15 14 -27 32 -27 40 0 23 50 76 72 76 20 0 20 1 3
20 -17 19 -17 20 11 31 25 11 27 13 9 17 -32 7 -47 23 -35 37 12 15 3 25 -25
25 -11 0 -26 5 -33 12 -9 9 -12 -41 -12 -226z m50 145 c0 -10 -26 -9 -36 2 -4
4 2 7 14 7 12 0 22 -4 22 -9z"/>
</g>
</svg>
